# WaveFront *.obj file (generated by Autodesk ATF)

mtllib 50f8958e-03d9-443f-95dc-074bfc583e16.mtl

g Body1

v -7.557833 -1.626603 9.500000
v -7.557833 -1.126603 9.000000
v 7.557833 -1.126603 9.000000
v 7.557833 -1.626603 9.500000
v 7.557833 -1.626603 11.000000
v -7.557833 -1.626603 11.000000
v 7.557833 -0.526603 9.000000
v 7.557833 -0.526603 11.000000
v -7.557833 2.873397 9.000000
v -7.557833 3.373397 9.500000
v 7.557833 3.373397 9.500000
v 7.557833 2.873397 9.000000
v -7.557833 3.373397 11.000000
v 7.557833 3.373397 11.000000
v -7.557833 2.273397 9.000000
v -7.557833 2.273397 11.000000
v 9.000000 2.573397 10.500000
v 8.500000 2.469387 11.000000
v 8.500000 -0.722593 11.000000
v 9.000000 -0.826603 10.500000
v 9.000000 -0.826603 9.000000
v 7.557833 2.273397 11.000000
v -8.500000 2.469387 11.000000
v -8.500000 -0.722593 11.000000
v -7.557833 -0.526603 11.000000
v -9.000000 -0.826603 10.500000
v -9.000000 2.573397 10.500000
v -9.000000 -0.826603 9.000000
v -7.557833 -0.526603 9.000000
v 9.000000 2.573397 9.000000
v 7.557833 2.273397 9.000000
v -9.000000 2.573397 9.000000
vt 0.377892 0.035355 0.000000
vt -1.133675 0.035355 0.000000
vt 0.377892 -0.035355 0.000000
vt -1.133675 -0.035355 0.000000
vt 0.000000 0.050000 0.000000
vt 1.511567 0.050000 0.000000
vt -0.000000 0.200000 0.000000
vt 1.511567 0.200000 0.000000
vt 0.000000 0.200000 0.000000
vt 0.000000 0.050000 0.000000
vt 0.110000 0.200000 0.000000
vt 0.050000 0.000000 0.000000
vt 0.110000 0.000000 0.000000
vt 1.133675 0.035355 0.000000
vt -0.377892 0.035355 0.000000
vt 1.133675 -0.035355 0.000000
vt -0.377892 -0.035355 0.000000
vt 0.000000 0.050000 0.000000
vt 1.511567 0.050000 0.000000
vt 0.000000 0.200000 0.000000
vt 1.511567 0.200000 0.000000
vt -0.000000 0.200000 0.000000
vt -0.000000 0.050000 0.000000
vt 0.110000 0.200000 0.000000
vt 0.050000 0.000000 0.000000
vt 0.110000 0.000000 0.000000
vt 0.035355 0.255000 0.000000
vt -0.035355 0.244599 0.000000
vt 0.035355 -0.085000 0.000000
vt -0.035355 -0.074599 0.000000
vt 0.147304 0.000000 0.000000
vt 0.147304 0.150000 0.000000
vt 0.000000 0.000000 0.000000
vt 0.096234 0.200000 0.000000
vt 0.000000 0.200000 0.000000
vt 0.850000 0.159599 0.000000
vt 0.755783 0.140000 0.000000
vt 0.850000 -0.159599 0.000000
vt 0.755783 -0.140000 0.000000
vt -0.755783 0.140000 0.000000
vt -0.755783 -0.140000 0.000000
vt -0.850000 -0.159599 0.000000
vt -0.850000 0.159599 0.000000
vt 0.755783 0.250000 0.000000
vt -0.755783 0.250000 0.000000
vt -0.755783 -0.250000 0.000000
vt 0.755783 -0.250000 0.000000
vt 0.035355 -0.244599 0.000000
vt 0.035355 0.074599 0.000000
vt -0.035355 -0.255000 0.000000
vt -0.035355 0.085000 0.000000
vt 0.147304 0.200000 0.000000
vt 0.051070 0.200000 0.000000
vt 0.147304 0.000000 0.000000
vt 0.000000 0.150000 0.000000
vt 0.000000 0.000000 0.000000
vt 0.147304 0.200000 0.000000
vt 0.051070 0.200000 0.000000
vt 0.147304 0.000000 0.000000
vt -0.000000 0.150000 0.000000
vt -0.000000 0.000000 0.000000
vt 0.340000 0.150000 0.000000
vt 0.000000 0.150000 0.000000
vt 0.340000 0.000000 0.000000
vt 0.000000 0.000000 0.000000
vt -0.000000 0.000000 0.000000
vt 0.060000 0.000000 0.000000
vt 0.000000 0.200000 0.000000
vt 0.110000 0.050000 0.000000
vt 0.110000 0.200000 0.000000
vt 0.340000 0.150000 0.000000
vt 0.000000 0.150000 0.000000
vt 0.340000 0.000000 0.000000
vt 0.000000 0.000000 0.000000
vt 0.147304 0.000000 0.000000
vt 0.147304 0.150000 0.000000
vt 0.000000 0.000000 0.000000
vt 0.096234 0.200000 0.000000
vt 0.000000 0.200000 0.000000
vt 0.000000 0.000000 0.000000
vt 0.060000 0.000000 0.000000
vt 0.000000 0.200000 0.000000
vt 0.110000 0.050000 0.000000
vt 0.110000 0.200000 0.000000
vt -0.755783 -0.200000 0.000000
vt 0.755783 -0.200000 0.000000
vt -0.755783 -0.140000 0.000000
vt 0.755783 -0.140000 0.000000
vt -0.755783 0.140000 0.000000
vt 0.755783 0.140000 0.000000
vt -0.755783 0.200000 0.000000
vt 0.755783 0.200000 0.000000
vt 0.900000 -0.170000 0.000000
vt 0.900000 0.170000 0.000000
vt -0.900000 0.170000 0.000000
vt -0.900000 -0.170000 0.000000
vn 0.000000 -0.070711 -0.070711
vn 0.000000 -0.070711 -0.070711
vn 0.000000 -0.070711 -0.070711
vn 0.000000 -0.070711 -0.070711
vn 0.000000 -0.100000 0.000000
vn 0.000000 -0.100000 0.000000
vn 0.000000 -0.100000 0.000000
vn 0.000000 -0.100000 0.000000
vn 0.100000 0.000000 0.000000
vn 0.100000 0.000000 0.000000
vn 0.100000 0.000000 0.000000
vn 0.100000 0.000000 0.000000
vn 0.100000 0.000000 0.000000
vn 0.000000 0.070711 -0.070711
vn 0.000000 0.070711 -0.070711
vn 0.000000 0.070711 -0.070711
vn 0.000000 0.070711 -0.070711
vn 0.000000 0.100000 0.000000
vn 0.000000 0.100000 0.000000
vn 0.000000 0.100000 0.000000
vn 0.000000 0.100000 0.000000
vn -0.100000 0.000000 0.000000
vn -0.100000 0.000000 0.000000
vn -0.100000 0.000000 0.000000
vn -0.100000 0.000000 0.000000
vn -0.100000 0.000000 0.000000
vn 0.070711 -0.000000 0.070711
vn 0.070711 -0.000000 0.070711
vn 0.070711 -0.000000 0.070711
vn 0.070711 -0.000000 0.070711
vn -0.020366 -0.097904 0.000000
vn -0.020366 -0.097904 0.000000
vn -0.020366 -0.097904 0.000000
vn -0.020366 -0.097904 0.000000
vn -0.020366 -0.097904 0.000000
vn 0.000000 0.000000 0.100000
vn 0.000000 0.000000 0.100000
vn 0.000000 0.000000 0.100000
vn 0.000000 0.000000 0.100000
vn 0.000000 0.000000 0.100000
vn 0.000000 0.000000 0.100000
vn 0.000000 0.000000 0.100000
vn 0.000000 0.000000 0.100000
vn 0.000000 0.000000 0.100000
vn 0.000000 0.000000 0.100000
vn 0.000000 0.000000 0.100000
vn 0.000000 0.000000 0.100000
vn -0.070711 -0.000000 0.070711
vn -0.070711 -0.000000 0.070711
vn -0.070711 -0.000000 0.070711
vn -0.070711 -0.000000 0.070711
vn 0.020366 -0.097904 0.000000
vn 0.020366 -0.097904 0.000000
vn 0.020366 -0.097904 0.000000
vn 0.020366 -0.097904 0.000000
vn 0.020366 -0.097904 0.000000
vn -0.020366 0.097904 0.000000
vn -0.020366 0.097904 0.000000
vn -0.020366 0.097904 0.000000
vn -0.020366 0.097904 0.000000
vn -0.020366 0.097904 0.000000
vn 0.100000 -0.000000 0.000000
vn 0.100000 -0.000000 0.000000
vn 0.100000 -0.000000 0.000000
vn 0.100000 -0.000000 0.000000
vn -0.100000 0.000000 0.000000
vn -0.100000 0.000000 0.000000
vn -0.100000 0.000000 0.000000
vn -0.100000 0.000000 0.000000
vn -0.100000 0.000000 0.000000
vn -0.100000 -0.000000 0.000000
vn -0.100000 -0.000000 0.000000
vn -0.100000 -0.000000 0.000000
vn -0.100000 -0.000000 0.000000
vn 0.020366 0.097904 0.000000
vn 0.020366 0.097904 0.000000
vn 0.020366 0.097904 0.000000
vn 0.020366 0.097904 0.000000
vn 0.020366 0.097904 0.000000
vn 0.100000 0.000000 0.000000
vn 0.100000 0.000000 0.000000
vn 0.100000 0.000000 0.000000
vn 0.100000 0.000000 0.000000
vn 0.100000 0.000000 0.000000
vn 0.000000 0.000000 -0.100000
vn 0.000000 0.000000 -0.100000
vn 0.000000 0.000000 -0.100000
vn 0.000000 0.000000 -0.100000
vn 0.000000 0.000000 -0.100000
vn 0.000000 0.000000 -0.100000
vn 0.000000 0.000000 -0.100000
vn 0.000000 0.000000 -0.100000
vn 0.000000 0.000000 -0.100000
vn 0.000000 0.000000 -0.100000
vn 0.000000 0.000000 -0.100000
vn 0.000000 0.000000 -0.100000
usemtl Steel_-_Satin
f 2/1/1 3/2/2 1/3/3
f 1/3/3 3/2/2 4/4/4
f 1/5/5 4/6/6 6/7/7
f 6/7/7 4/6/6 5/8/8
f 5/9/9 4/10/10 8/11/11
f 8/11/11 4/10/10 3/12/12
f 8/11/11 3/12/12 7/13/13
f 10/14/14 11/15/15 9/16/16
f 9/16/16 11/15/15 12/17/17
f 11/18/18 10/19/19 14/20/20
f 14/20/20 10/19/19 13/21/21
f 13/22/22 10/23/23 16/24/24
f 16/24/24 10/23/23 9/25/25
f 16/24/24 9/25/25 15/26/26
f 17/27/27 18/28/28 20/29/29
f 20/29/29 18/28/28 19/30/30
f 21/31/31 20/32/32 7/33/33
f 7/33/33 20/32/32 19/34/34
f 7/33/33 19/34/34 8/35/35
f 18/36/36 22/37/37 19/38/38
f 19/38/38 22/37/37 8/39/39
f 8/39/39 22/37/37 16/40/40
f 8/39/39 16/40/40 25/41/41
f 25/41/41 16/40/40 24/42/42
f 24/42/42 16/40/40 23/43/43
f 14/44/44 13/45/45 22/37/37
f 22/37/37 13/45/45 16/40/40
f 6/46/46 5/47/47 25/41/41
f 25/41/41 5/47/47 8/39/39
f 24/48/48 23/49/49 26/50/50
f 26/50/50 23/49/49 27/51/51
f 25/52/52 24/53/53 29/54/54
f 29/54/54 24/53/53 26/55/55
f 29/54/54 26/55/55 28/56/56
f 22/57/57 18/58/58 31/59/59
f 31/59/59 18/58/58 17/60/60
f 31/59/59 17/60/60 30/61/61
f 17/62/62 20/63/63 30/64/64
f 30/64/64 20/63/63 21/65/65
f 29/66/66 2/67/67 25/68/68
f 25/68/68 2/67/67 1/69/69
f 25/68/68 1/69/69 6/70/70
f 26/71/71 27/72/72 28/73/73
f 28/73/73 27/72/72 32/74/74
f 32/75/75 27/76/76 15/77/77
f 15/77/77 27/76/76 23/78/78
f 15/77/77 23/78/78 16/79/79
f 31/80/80 12/81/81 22/82/82
f 22/82/82 12/81/81 11/83/83
f 22/82/82 11/83/83 14/84/84
f 3/85/85 2/86/86 7/87/87
f 7/87/87 2/86/86 29/88/88
f 7/87/87 29/88/88 31/89/89
f 31/89/89 29/88/88 15/90/90
f 31/89/89 15/90/90 12/91/91
f 12/91/91 15/90/90 9/92/92
f 29/88/88 28/93/93 15/90/90
f 15/90/90 28/93/93 32/94/94
f 30/95/95 21/96/96 31/89/89
f 31/89/89 21/96/96 7/87/87
# 32 vertices
# 96 texture params
# 96 normals
# 60 facets

# 1 groups
