G04 EAGLE Gerber RS-274X export*
G75*
%MOMM*%
%FSLAX34Y34*%
%LPD*%
%INBottom Copper*%
%IPPOS*%
%AMOC8*
5,1,8,0,0,1.08239X$1,22.5*%
G01*
G04 Define Apertures*
%ADD10C,1.208000*%
%ADD11R,1.208000X1.208000*%
%ADD12R,1.650000X1.650000*%
%ADD13C,1.650000*%
%ADD14R,1.308000X1.308000*%
%ADD15C,1.308000*%
D10*
X364116Y75192D03*
D11*
G36*
X372403Y100606D02*
X371350Y88573D01*
X359317Y89626D01*
X360370Y101659D01*
X372403Y100606D01*
G37*
D10*
X157174Y52870D03*
D11*
G36*
X142248Y75046D02*
X151082Y66808D01*
X142844Y57974D01*
X134010Y66212D01*
X142248Y75046D01*
G37*
D10*
X251498Y59956D03*
D11*
G36*
X229586Y44647D02*
X237669Y53624D01*
X246646Y45541D01*
X238563Y36564D01*
X229586Y44647D01*
G37*
D10*
X352653Y163863D03*
D11*
G36*
X344366Y138449D02*
X345419Y150482D01*
X357452Y149429D01*
X356399Y137396D01*
X344366Y138449D01*
G37*
D10*
X160473Y191483D03*
D11*
G36*
X138561Y176174D02*
X146644Y185151D01*
X155621Y177068D01*
X147538Y168091D01*
X138561Y176174D01*
G37*
D12*
G36*
X68890Y54632D02*
X58065Y42181D01*
X45614Y53006D01*
X56439Y65457D01*
X68890Y54632D01*
G37*
D13*
X73916Y72989D03*
D14*
G36*
X199241Y86846D02*
X190489Y77126D01*
X180769Y85878D01*
X189521Y95598D01*
X199241Y86846D01*
G37*
D15*
X246212Y148786D03*
X204057Y101968D03*
X232161Y133180D03*
X218109Y117574D03*
X260264Y164392D03*
X274316Y179998D03*
X174399Y100414D03*
X230606Y162838D03*
X188451Y116020D03*
X216554Y147232D03*
X202503Y131626D03*
X244658Y178444D03*
X258710Y194050D03*
M02*
