G04 EAGLE Gerber RS-274X export*
G75*
%MOMM*%
%FSLAX34Y34*%
%LPD*%
%IN*%
%IPPOS*%
%AMOC8*
5,1,8,0,0,1.08239X$1,22.5*%
G01*
G04 Define Apertures*
%ADD10C,0.254000*%
D10*
X0Y1937D02*
X358412Y6D01*
X360374Y81D01*
X362321Y327D01*
X364240Y742D01*
X366115Y1322D01*
X367932Y2063D01*
X369678Y2960D01*
X371339Y4006D01*
X372903Y5192D01*
X374357Y6511D01*
X375691Y7951D01*
X376894Y9502D01*
X377958Y11151D01*
X378874Y12888D01*
X379635Y14697D01*
X380235Y16566D01*
X380670Y18480D01*
X380797Y19251D01*
X417610Y462352D01*
X419972Y496201D01*
X396729Y496201D01*
X0Y39879D01*
X0Y1937D01*
X368533Y22069D02*
X368533Y22943D01*
X368457Y23813D01*
X368306Y24673D01*
X368080Y25516D01*
X367781Y26337D01*
X367412Y27128D01*
X366975Y27884D01*
X366474Y28600D01*
X365913Y29268D01*
X365296Y29886D01*
X364627Y30447D01*
X363911Y30948D01*
X363155Y31385D01*
X362364Y31754D01*
X361543Y32052D01*
X360700Y32278D01*
X359840Y32430D01*
X358970Y32506D01*
X358097Y32506D01*
X357227Y32430D01*
X356367Y32278D01*
X355523Y32052D01*
X354703Y31754D01*
X353911Y31385D01*
X353155Y30948D01*
X352440Y30447D01*
X351771Y29886D01*
X351154Y29268D01*
X350592Y28600D01*
X350091Y27884D01*
X349655Y27128D01*
X349286Y26337D01*
X348987Y25516D01*
X348761Y24673D01*
X348609Y23813D01*
X348533Y22943D01*
X348533Y22069D01*
X348609Y21200D01*
X348761Y20340D01*
X348987Y19496D01*
X349286Y18676D01*
X349655Y17884D01*
X350091Y17128D01*
X350592Y16413D01*
X351154Y15744D01*
X351771Y15126D01*
X352440Y14565D01*
X353155Y14064D01*
X353911Y13628D01*
X354703Y13259D01*
X355523Y12960D01*
X356367Y12734D01*
X357227Y12582D01*
X358097Y12506D01*
X358970Y12506D01*
X359840Y12582D01*
X360700Y12734D01*
X361543Y12960D01*
X362364Y13259D01*
X363155Y13628D01*
X363911Y14064D01*
X364627Y14565D01*
X365296Y15126D01*
X365913Y15744D01*
X366474Y16413D01*
X366975Y17128D01*
X367412Y17884D01*
X367781Y18676D01*
X368080Y19496D01*
X368306Y20340D01*
X368457Y21200D01*
X368533Y22069D01*
X26430Y27858D02*
X26430Y28731D01*
X26354Y29601D01*
X26203Y30461D01*
X25977Y31304D01*
X25678Y32125D01*
X25309Y32916D01*
X24872Y33672D01*
X24372Y34388D01*
X23810Y35057D01*
X23193Y35674D01*
X22524Y36235D01*
X21809Y36736D01*
X21052Y37173D01*
X20261Y37542D01*
X19440Y37840D01*
X18597Y38066D01*
X17737Y38218D01*
X16867Y38294D01*
X15994Y38294D01*
X15124Y38218D01*
X14264Y38066D01*
X13420Y37840D01*
X12600Y37542D01*
X11809Y37173D01*
X11052Y36736D01*
X10337Y36235D01*
X9668Y35674D01*
X9051Y35057D01*
X8489Y34388D01*
X7988Y33672D01*
X7552Y32916D01*
X7183Y32125D01*
X6884Y31304D01*
X6658Y30461D01*
X6507Y29601D01*
X6430Y28731D01*
X6430Y27858D01*
X6507Y26988D01*
X6658Y26128D01*
X6884Y25284D01*
X7183Y24464D01*
X7552Y23672D01*
X7988Y22916D01*
X8489Y22201D01*
X9051Y21532D01*
X9668Y20914D01*
X10337Y20353D01*
X11052Y19852D01*
X11809Y19416D01*
X12600Y19047D01*
X13420Y18748D01*
X14264Y18522D01*
X15124Y18370D01*
X15994Y18294D01*
X16867Y18294D01*
X17737Y18370D01*
X18597Y18522D01*
X19440Y18748D01*
X20261Y19047D01*
X21052Y19416D01*
X21809Y19852D01*
X22524Y20353D01*
X23193Y20914D01*
X23810Y21532D01*
X24372Y22201D01*
X24872Y22916D01*
X25309Y23672D01*
X25678Y24464D01*
X25977Y25284D01*
X26203Y26128D01*
X26354Y26988D01*
X26430Y27858D01*
X405164Y463482D02*
X405164Y464355D01*
X405088Y465225D01*
X404937Y466085D01*
X404711Y466928D01*
X404412Y467749D01*
X404043Y468540D01*
X403606Y469297D01*
X403105Y470012D01*
X402544Y470681D01*
X401927Y471298D01*
X401258Y471860D01*
X400542Y472360D01*
X399786Y472797D01*
X398995Y473166D01*
X398174Y473465D01*
X397331Y473691D01*
X396471Y473842D01*
X395601Y473918D01*
X394728Y473918D01*
X393858Y473842D01*
X392998Y473691D01*
X392154Y473465D01*
X391334Y473166D01*
X390542Y472797D01*
X389786Y472360D01*
X389071Y471860D01*
X388402Y471298D01*
X387785Y470681D01*
X387223Y470012D01*
X386722Y469297D01*
X386286Y468540D01*
X385917Y467749D01*
X385618Y466928D01*
X385392Y466085D01*
X385240Y465225D01*
X385164Y464355D01*
X385164Y463482D01*
X385240Y462612D01*
X385392Y461752D01*
X385618Y460908D01*
X385917Y460088D01*
X386286Y459297D01*
X386722Y458540D01*
X387223Y457825D01*
X387785Y457156D01*
X388402Y456539D01*
X389071Y455977D01*
X389786Y455476D01*
X390542Y455040D01*
X391334Y454671D01*
X392154Y454372D01*
X392998Y454146D01*
X393858Y453995D01*
X394728Y453918D01*
X395601Y453918D01*
X396471Y453995D01*
X397331Y454146D01*
X398174Y454372D01*
X398995Y454671D01*
X399786Y455040D01*
X400542Y455476D01*
X401258Y455977D01*
X401927Y456539D01*
X402544Y457156D01*
X403105Y457825D01*
X403606Y458540D01*
X404043Y459297D01*
X404412Y460088D01*
X404711Y460908D01*
X404937Y461752D01*
X405088Y462612D01*
X405164Y463482D01*
M02*
