G04 EAGLE Gerber RS-274X export*
G75*
%MOMM*%
%FSLAX34Y34*%
%LPD*%
%INSilkscreen Bottom*%
%IPPOS*%
%AMOC8*
5,1,8,0,0,1.08239X$1,22.5*%
G01*
G04 Define Apertures*
%ADD10C,0.127000*%
%ADD11C,0.200000*%
%ADD12R,8.700000X0.600000*%
G36*
X146930Y44908D02*
X145707Y46049D01*
X142146Y42231D01*
X137265Y46783D01*
X140826Y50600D01*
X139602Y51741D01*
X131186Y42716D01*
X132409Y41575D01*
X136310Y45758D01*
X141191Y41206D01*
X137290Y37023D01*
X138514Y35882D01*
X146930Y44908D01*
G37*
G36*
X130227Y45131D02*
X130394Y45655D01*
X130522Y46175D01*
X130612Y46689D01*
X130663Y47197D01*
X130685Y47699D01*
X130689Y48194D01*
X130674Y48680D01*
X130641Y49158D01*
X130542Y50087D01*
X130416Y50978D01*
X130302Y51827D01*
X130238Y52630D01*
X130230Y53013D01*
X130246Y53382D01*
X130287Y53738D01*
X130351Y54081D01*
X130450Y54409D01*
X130594Y54722D01*
X130784Y55020D01*
X131018Y55303D01*
X131193Y55477D01*
X131372Y55628D01*
X131555Y55756D01*
X131742Y55861D01*
X131933Y55943D01*
X132128Y56002D01*
X132326Y56037D01*
X132529Y56050D01*
X132733Y56039D01*
X132935Y56006D01*
X133136Y55951D01*
X133336Y55872D01*
X133534Y55771D01*
X133731Y55647D01*
X133927Y55500D01*
X134122Y55331D01*
X134296Y55157D01*
X134450Y54977D01*
X134585Y54793D01*
X134700Y54604D01*
X134795Y54410D01*
X134871Y54211D01*
X134926Y54007D01*
X134962Y53799D01*
X134977Y53588D01*
X134971Y53379D01*
X134942Y53171D01*
X134892Y52964D01*
X134820Y52759D01*
X134727Y52555D01*
X134611Y52353D01*
X134474Y52152D01*
X135755Y51162D01*
X135958Y51465D01*
X136128Y51774D01*
X136264Y52088D01*
X136367Y52408D01*
X136436Y52733D01*
X136472Y53064D01*
X136474Y53400D01*
X136442Y53742D01*
X136377Y54083D01*
X136280Y54417D01*
X136149Y54745D01*
X135986Y55065D01*
X135790Y55379D01*
X135562Y55686D01*
X135300Y55986D01*
X135006Y56279D01*
X134665Y56578D01*
X134325Y56838D01*
X133987Y57060D01*
X133649Y57243D01*
X133312Y57388D01*
X132976Y57494D01*
X132642Y57562D01*
X132308Y57591D01*
X131978Y57582D01*
X131655Y57535D01*
X131339Y57449D01*
X131031Y57325D01*
X130730Y57163D01*
X130436Y56962D01*
X130149Y56724D01*
X129869Y56447D01*
X129639Y56170D01*
X129441Y55867D01*
X129273Y55536D01*
X129135Y55178D01*
X129028Y54793D01*
X128950Y54381D01*
X128901Y53941D01*
X128882Y53475D01*
X128898Y52908D01*
X128955Y52170D01*
X129055Y51259D01*
X129195Y50176D01*
X129271Y49557D01*
X129323Y48987D01*
X129351Y48467D01*
X129355Y47998D01*
X129334Y47569D01*
X129287Y47173D01*
X129214Y46810D01*
X129114Y46480D01*
X124406Y50871D01*
X123492Y49891D01*
X129468Y44317D01*
X130227Y45131D01*
G37*
G36*
X264071Y34493D02*
X259821Y38320D01*
X264287Y43279D01*
X268537Y39452D01*
X269657Y40696D01*
X260486Y48953D01*
X259366Y47710D01*
X263245Y44217D01*
X258780Y39257D01*
X254900Y42750D01*
X253781Y41507D01*
X262952Y33249D01*
X264071Y34493D01*
G37*
G36*
X255997Y26664D02*
X256352Y26729D01*
X256704Y26836D01*
X257054Y26984D01*
X257401Y27173D01*
X257747Y27403D01*
X258089Y27675D01*
X258430Y27987D01*
X258768Y28341D01*
X259064Y28689D01*
X259324Y29037D01*
X259549Y29386D01*
X259738Y29734D01*
X259892Y30083D01*
X260011Y30432D01*
X260094Y30780D01*
X260141Y31129D01*
X260152Y31476D01*
X260125Y31819D01*
X260061Y32157D01*
X259958Y32492D01*
X259818Y32822D01*
X259640Y33148D01*
X259424Y33470D01*
X259171Y33788D01*
X257970Y32677D01*
X258136Y32465D01*
X258277Y32252D01*
X258396Y32038D01*
X258491Y31824D01*
X258562Y31609D01*
X258610Y31394D01*
X258634Y31178D01*
X258635Y30962D01*
X258613Y30745D01*
X258567Y30528D01*
X258498Y30310D01*
X258405Y30092D01*
X258288Y29873D01*
X258148Y29654D01*
X257985Y29434D01*
X257798Y29214D01*
X257598Y29005D01*
X257394Y28820D01*
X257187Y28659D01*
X256978Y28522D01*
X256766Y28410D01*
X256550Y28321D01*
X256332Y28257D01*
X256111Y28217D01*
X255889Y28203D01*
X255668Y28216D01*
X255448Y28258D01*
X255228Y28327D01*
X255010Y28423D01*
X254793Y28547D01*
X254577Y28699D01*
X254361Y28879D01*
X254188Y29052D01*
X254040Y29233D01*
X253919Y29424D01*
X253825Y29623D01*
X253757Y29831D01*
X253715Y30047D01*
X253700Y30273D01*
X253712Y30507D01*
X253750Y30747D01*
X253816Y30992D01*
X253910Y31241D01*
X254031Y31494D01*
X254179Y31751D01*
X254355Y32013D01*
X254558Y32278D01*
X254789Y32548D01*
X255387Y33212D01*
X254372Y34126D01*
X253797Y33488D01*
X253580Y33260D01*
X253362Y33057D01*
X253143Y32880D01*
X252923Y32728D01*
X252701Y32601D01*
X252479Y32499D01*
X252256Y32423D01*
X252033Y32372D01*
X251811Y32347D01*
X251594Y32347D01*
X251381Y32373D01*
X251174Y32425D01*
X250971Y32502D01*
X250774Y32605D01*
X250581Y32734D01*
X250393Y32888D01*
X250220Y33056D01*
X250069Y33229D01*
X249940Y33406D01*
X249832Y33589D01*
X249747Y33776D01*
X249683Y33968D01*
X249641Y34165D01*
X249621Y34367D01*
X249624Y34572D01*
X249653Y34778D01*
X249707Y34985D01*
X249785Y35193D01*
X249889Y35402D01*
X250019Y35612D01*
X250173Y35824D01*
X250352Y36036D01*
X250529Y36220D01*
X250709Y36383D01*
X250894Y36525D01*
X251082Y36648D01*
X251275Y36749D01*
X251472Y36831D01*
X251672Y36891D01*
X251877Y36932D01*
X252084Y36951D01*
X252289Y36949D01*
X252493Y36925D01*
X252696Y36879D01*
X252898Y36812D01*
X253099Y36723D01*
X253299Y36613D01*
X253498Y36480D01*
X254468Y37740D01*
X254155Y37944D01*
X253839Y38112D01*
X253519Y38246D01*
X253196Y38344D01*
X252870Y38408D01*
X252540Y38437D01*
X252206Y38430D01*
X251869Y38389D01*
X251534Y38314D01*
X251205Y38207D01*
X250884Y38068D01*
X250569Y37897D01*
X250261Y37693D01*
X249959Y37458D01*
X249665Y37190D01*
X249377Y36891D01*
X249085Y36546D01*
X248831Y36203D01*
X248613Y35861D01*
X248433Y35520D01*
X248291Y35181D01*
X248186Y34842D01*
X248118Y34505D01*
X248087Y34169D01*
X248094Y33838D01*
X248138Y33517D01*
X248219Y33206D01*
X248338Y32904D01*
X248494Y32613D01*
X248687Y32330D01*
X248917Y32058D01*
X249185Y31795D01*
X249407Y31610D01*
X249632Y31449D01*
X249860Y31313D01*
X250092Y31201D01*
X250328Y31114D01*
X250567Y31051D01*
X250810Y31014D01*
X251056Y31000D01*
X251305Y31011D01*
X251556Y31046D01*
X251807Y31105D01*
X252061Y31188D01*
X252315Y31294D01*
X252571Y31425D01*
X252829Y31580D01*
X253088Y31758D01*
X253114Y31735D01*
X252924Y31453D01*
X252761Y31173D01*
X252626Y30893D01*
X252518Y30615D01*
X252438Y30338D01*
X252385Y30061D01*
X252360Y29786D01*
X252362Y29512D01*
X252391Y29243D01*
X252445Y28984D01*
X252525Y28734D01*
X252630Y28494D01*
X252760Y28263D01*
X252916Y28041D01*
X253098Y27829D01*
X253305Y27627D01*
X253624Y27362D01*
X253949Y27138D01*
X254278Y26955D01*
X254612Y26814D01*
X254951Y26715D01*
X255295Y26656D01*
X255644Y26639D01*
X255997Y26664D01*
G37*
G36*
X374334Y142259D02*
X377117Y142016D01*
X377247Y143499D01*
X374463Y143743D01*
X374970Y149536D01*
X373749Y149643D01*
X364967Y144740D01*
X364823Y143091D01*
X373095Y142368D01*
X372943Y140640D01*
X374182Y140532D01*
X374334Y142259D01*
G37*
%LPC*%
G36*
X366724Y144420D02*
X367208Y144624D01*
X367814Y144913D01*
X372731Y147657D01*
X373418Y148072D01*
X373605Y148196D01*
X373224Y143851D01*
X366724Y144420D01*
G37*
%LPD*%
G36*
X378061Y152810D02*
X372364Y153309D01*
X372945Y159957D01*
X378643Y159459D01*
X378789Y161125D01*
X366495Y162201D01*
X366349Y160534D01*
X371549Y160079D01*
X370968Y153431D01*
X365768Y153886D01*
X365622Y152219D01*
X377916Y151144D01*
X378061Y152810D01*
G37*
G36*
X174430Y167048D02*
X170180Y170875D01*
X174646Y175835D01*
X178896Y172008D01*
X180015Y173251D01*
X170844Y181509D01*
X169725Y180266D01*
X173604Y176773D01*
X169139Y171813D01*
X165259Y175306D01*
X164140Y174063D01*
X173311Y165805D01*
X174430Y167048D01*
G37*
G36*
X166246Y159372D02*
X166644Y159422D01*
X167036Y159516D01*
X167420Y159655D01*
X167797Y159838D01*
X168167Y160066D01*
X168529Y160337D01*
X168884Y160653D01*
X169232Y161014D01*
X169505Y161334D01*
X169747Y161655D01*
X169957Y161977D01*
X170136Y162298D01*
X170283Y162620D01*
X170399Y162942D01*
X170483Y163265D01*
X170536Y163587D01*
X170558Y163908D01*
X170547Y164225D01*
X170505Y164538D01*
X170430Y164847D01*
X170324Y165152D01*
X170185Y165453D01*
X170015Y165750D01*
X169812Y166043D01*
X168609Y164981D01*
X168728Y164782D01*
X168828Y164583D01*
X168909Y164385D01*
X168972Y164187D01*
X169015Y163989D01*
X169040Y163793D01*
X169046Y163596D01*
X169033Y163400D01*
X169001Y163205D01*
X168951Y163010D01*
X168881Y162815D01*
X168793Y162621D01*
X168686Y162427D01*
X168560Y162234D01*
X168416Y162041D01*
X168252Y161849D01*
X168037Y161628D01*
X167815Y161435D01*
X167587Y161271D01*
X167352Y161136D01*
X167112Y161030D01*
X166865Y160953D01*
X166612Y160904D01*
X166352Y160884D01*
X166091Y160893D01*
X165831Y160931D01*
X165572Y160998D01*
X165316Y161093D01*
X165061Y161217D01*
X164808Y161369D01*
X164556Y161550D01*
X164306Y161760D01*
X164103Y161959D01*
X163924Y162165D01*
X163772Y162378D01*
X163644Y162599D01*
X163543Y162827D01*
X163466Y163063D01*
X163416Y163306D01*
X163390Y163557D01*
X163391Y163810D01*
X163420Y164059D01*
X163475Y164305D01*
X163558Y164548D01*
X163668Y164788D01*
X163805Y165024D01*
X163969Y165256D01*
X164161Y165486D01*
X164380Y165711D01*
X164611Y165911D01*
X164854Y166086D01*
X165107Y166236D01*
X165380Y166362D01*
X165678Y166465D01*
X166003Y166544D01*
X166354Y166599D01*
X167385Y167745D01*
X162176Y171881D01*
X157481Y166668D01*
X158477Y165771D01*
X162211Y169917D01*
X165278Y167473D01*
X164964Y167401D01*
X164658Y167300D01*
X164360Y167171D01*
X164070Y167015D01*
X163787Y166830D01*
X163513Y166617D01*
X163246Y166376D01*
X162987Y166107D01*
X162702Y165766D01*
X162458Y165419D01*
X162254Y165068D01*
X162090Y164712D01*
X161967Y164350D01*
X161884Y163983D01*
X161841Y163611D01*
X161838Y163234D01*
X161875Y162860D01*
X161949Y162498D01*
X162061Y162147D01*
X162210Y161808D01*
X162397Y161480D01*
X162622Y161164D01*
X162884Y160859D01*
X163184Y160566D01*
X163550Y160262D01*
X163920Y160002D01*
X164295Y159786D01*
X164675Y159614D01*
X165060Y159487D01*
X165451Y159404D01*
X165846Y159366D01*
X166246Y159372D01*
G37*
G36*
X77221Y37301D02*
X77600Y37367D01*
X77971Y37474D01*
X78334Y37621D01*
X78690Y37809D01*
X79039Y38038D01*
X79379Y38306D01*
X79713Y38616D01*
X80038Y38966D01*
X82417Y41702D01*
X86046Y38548D01*
X87144Y39810D01*
X77830Y47907D01*
X74422Y43987D01*
X74103Y43596D01*
X73826Y43208D01*
X73591Y42822D01*
X73398Y42438D01*
X73247Y42056D01*
X73138Y41676D01*
X73072Y41298D01*
X73047Y40923D01*
X73065Y40554D01*
X73125Y40195D01*
X73227Y39847D01*
X73371Y39510D01*
X73557Y39183D01*
X73786Y38867D01*
X74057Y38561D01*
X74369Y38265D01*
X74703Y37999D01*
X75043Y37774D01*
X75390Y37591D01*
X75743Y37449D01*
X76103Y37350D01*
X76469Y37292D01*
X76842Y37275D01*
X77221Y37301D01*
G37*
%LPC*%
G36*
X76884Y38829D02*
X76652Y38872D01*
X76419Y38944D01*
X76186Y39045D01*
X75953Y39175D01*
X75719Y39334D01*
X75486Y39523D01*
X75275Y39721D01*
X75092Y39924D01*
X74939Y40132D01*
X74814Y40345D01*
X74718Y40562D01*
X74651Y40784D01*
X74613Y41010D01*
X74603Y41241D01*
X74623Y41477D01*
X74671Y41718D01*
X74748Y41963D01*
X74854Y42213D01*
X74989Y42468D01*
X75152Y42727D01*
X75345Y42991D01*
X75566Y43260D01*
X77744Y45765D01*
X81419Y42570D01*
X79195Y40012D01*
X78965Y39762D01*
X78735Y39542D01*
X78505Y39350D01*
X78274Y39188D01*
X78043Y39055D01*
X77812Y38952D01*
X77580Y38877D01*
X77348Y38832D01*
X77116Y38816D01*
X76884Y38829D01*
G37*
%LPD*%
G36*
X79381Y30880D02*
X78369Y31759D01*
X76307Y29386D01*
X69141Y35615D01*
X72469Y36413D01*
X71345Y37390D01*
X67918Y36504D01*
X66964Y35407D01*
X75267Y28190D01*
X73296Y25923D01*
X74307Y25044D01*
X79381Y30880D01*
G37*
G36*
X89324Y43253D02*
X89664Y43325D01*
X89994Y43435D01*
X90314Y43582D01*
X90624Y43768D01*
X90926Y43992D01*
X91217Y44254D01*
X91499Y44554D01*
X91740Y44850D01*
X91949Y45149D01*
X92126Y45448D01*
X92270Y45750D01*
X92383Y46053D01*
X92463Y46357D01*
X92511Y46663D01*
X92527Y46971D01*
X92510Y47280D01*
X92462Y47591D01*
X92381Y47903D01*
X92269Y48217D01*
X92124Y48533D01*
X91946Y48850D01*
X91737Y49169D01*
X91496Y49489D01*
X90216Y48431D01*
X90373Y48235D01*
X90511Y48038D01*
X90630Y47841D01*
X90731Y47645D01*
X90813Y47448D01*
X90876Y47250D01*
X90921Y47053D01*
X90947Y46856D01*
X90954Y46661D01*
X90943Y46471D01*
X90912Y46286D01*
X90861Y46106D01*
X90792Y45932D01*
X90703Y45762D01*
X90596Y45597D01*
X90469Y45438D01*
X90316Y45277D01*
X90156Y45138D01*
X89990Y45021D01*
X89816Y44926D01*
X89636Y44853D01*
X89449Y44801D01*
X89255Y44772D01*
X89054Y44765D01*
X88848Y44780D01*
X88639Y44820D01*
X88427Y44885D01*
X88213Y44974D01*
X87995Y45087D01*
X87774Y45224D01*
X87551Y45386D01*
X87324Y45572D01*
X81792Y50381D01*
X83349Y52173D01*
X82318Y53069D01*
X79669Y50022D01*
X86206Y44339D01*
X86546Y44064D01*
X86887Y43827D01*
X87231Y43629D01*
X87576Y43470D01*
X87923Y43349D01*
X88272Y43268D01*
X88623Y43224D01*
X88976Y43220D01*
X89324Y43253D01*
G37*
D10*
X384538Y113558D02*
X379309Y53787D01*
X326510Y58406D01*
X331740Y118177D01*
X384538Y113558D01*
D11*
X391386Y95405D02*
X391388Y95468D01*
X391394Y95530D01*
X391404Y95592D01*
X391417Y95654D01*
X391435Y95714D01*
X391456Y95773D01*
X391481Y95831D01*
X391510Y95887D01*
X391542Y95941D01*
X391577Y95993D01*
X391615Y96042D01*
X391657Y96090D01*
X391701Y96134D01*
X391749Y96176D01*
X391798Y96214D01*
X391850Y96249D01*
X391904Y96281D01*
X391960Y96310D01*
X392018Y96335D01*
X392077Y96356D01*
X392137Y96374D01*
X392199Y96387D01*
X392261Y96397D01*
X392323Y96403D01*
X392386Y96405D01*
X392449Y96403D01*
X392511Y96397D01*
X392573Y96387D01*
X392635Y96374D01*
X392695Y96356D01*
X392754Y96335D01*
X392812Y96310D01*
X392868Y96281D01*
X392922Y96249D01*
X392974Y96214D01*
X393023Y96176D01*
X393071Y96134D01*
X393115Y96090D01*
X393157Y96042D01*
X393195Y95993D01*
X393230Y95941D01*
X393262Y95887D01*
X393291Y95831D01*
X393316Y95773D01*
X393337Y95714D01*
X393355Y95654D01*
X393368Y95592D01*
X393378Y95530D01*
X393384Y95468D01*
X393386Y95405D01*
X393384Y95342D01*
X393378Y95280D01*
X393368Y95218D01*
X393355Y95156D01*
X393337Y95096D01*
X393316Y95037D01*
X393291Y94979D01*
X393262Y94923D01*
X393230Y94869D01*
X393195Y94817D01*
X393157Y94768D01*
X393115Y94720D01*
X393071Y94676D01*
X393023Y94634D01*
X392974Y94596D01*
X392922Y94561D01*
X392868Y94529D01*
X392812Y94500D01*
X392754Y94475D01*
X392695Y94454D01*
X392635Y94436D01*
X392573Y94423D01*
X392511Y94413D01*
X392449Y94407D01*
X392386Y94405D01*
X392323Y94407D01*
X392261Y94413D01*
X392199Y94423D01*
X392137Y94436D01*
X392077Y94454D01*
X392018Y94475D01*
X391960Y94500D01*
X391904Y94529D01*
X391850Y94561D01*
X391798Y94596D01*
X391749Y94634D01*
X391701Y94676D01*
X391657Y94720D01*
X391615Y94768D01*
X391577Y94817D01*
X391542Y94869D01*
X391510Y94923D01*
X391481Y94979D01*
X391456Y95037D01*
X391435Y95096D01*
X391417Y95156D01*
X391404Y95218D01*
X391394Y95280D01*
X391388Y95342D01*
X391386Y95405D01*
D10*
X183395Y51663D02*
X139513Y92583D01*
X183395Y51663D02*
X147249Y12901D01*
X103367Y53821D01*
X139513Y92583D01*
D11*
X157650Y87591D02*
X157652Y87654D01*
X157658Y87716D01*
X157668Y87778D01*
X157681Y87840D01*
X157699Y87900D01*
X157720Y87959D01*
X157745Y88017D01*
X157774Y88073D01*
X157806Y88127D01*
X157841Y88179D01*
X157879Y88228D01*
X157921Y88276D01*
X157965Y88320D01*
X158013Y88362D01*
X158062Y88400D01*
X158114Y88435D01*
X158168Y88467D01*
X158224Y88496D01*
X158282Y88521D01*
X158341Y88542D01*
X158401Y88560D01*
X158463Y88573D01*
X158525Y88583D01*
X158587Y88589D01*
X158650Y88591D01*
X158713Y88589D01*
X158775Y88583D01*
X158837Y88573D01*
X158899Y88560D01*
X158959Y88542D01*
X159018Y88521D01*
X159076Y88496D01*
X159132Y88467D01*
X159186Y88435D01*
X159238Y88400D01*
X159287Y88362D01*
X159335Y88320D01*
X159379Y88276D01*
X159421Y88228D01*
X159459Y88179D01*
X159494Y88127D01*
X159526Y88073D01*
X159555Y88017D01*
X159580Y87959D01*
X159601Y87900D01*
X159619Y87840D01*
X159632Y87778D01*
X159642Y87716D01*
X159648Y87654D01*
X159650Y87591D01*
X159648Y87528D01*
X159642Y87466D01*
X159632Y87404D01*
X159619Y87342D01*
X159601Y87282D01*
X159580Y87223D01*
X159555Y87165D01*
X159526Y87109D01*
X159494Y87055D01*
X159459Y87003D01*
X159421Y86954D01*
X159379Y86906D01*
X159335Y86862D01*
X159287Y86820D01*
X159238Y86782D01*
X159186Y86747D01*
X159132Y86715D01*
X159076Y86686D01*
X159018Y86661D01*
X158959Y86640D01*
X158899Y86622D01*
X158837Y86609D01*
X158775Y86599D01*
X158713Y86593D01*
X158650Y86591D01*
X158587Y86593D01*
X158525Y86599D01*
X158463Y86609D01*
X158401Y86622D01*
X158341Y86640D01*
X158282Y86661D01*
X158224Y86686D01*
X158168Y86715D01*
X158114Y86747D01*
X158062Y86782D01*
X158013Y86820D01*
X157965Y86862D01*
X157921Y86906D01*
X157879Y86954D01*
X157841Y87003D01*
X157806Y87055D01*
X157774Y87109D01*
X157745Y87165D01*
X157720Y87223D01*
X157699Y87282D01*
X157681Y87342D01*
X157668Y87404D01*
X157658Y87466D01*
X157652Y87528D01*
X157650Y87591D01*
D10*
X212100Y41606D02*
X252247Y86195D01*
X291634Y50731D01*
X251486Y6142D01*
X212100Y41606D01*
D11*
X215757Y60826D02*
X215759Y60889D01*
X215765Y60951D01*
X215775Y61013D01*
X215788Y61075D01*
X215806Y61135D01*
X215827Y61194D01*
X215852Y61252D01*
X215881Y61308D01*
X215913Y61362D01*
X215948Y61414D01*
X215986Y61463D01*
X216028Y61511D01*
X216072Y61555D01*
X216120Y61597D01*
X216169Y61635D01*
X216221Y61670D01*
X216275Y61702D01*
X216331Y61731D01*
X216389Y61756D01*
X216448Y61777D01*
X216508Y61795D01*
X216570Y61808D01*
X216632Y61818D01*
X216694Y61824D01*
X216757Y61826D01*
X216820Y61824D01*
X216882Y61818D01*
X216944Y61808D01*
X217006Y61795D01*
X217066Y61777D01*
X217125Y61756D01*
X217183Y61731D01*
X217239Y61702D01*
X217293Y61670D01*
X217345Y61635D01*
X217394Y61597D01*
X217442Y61555D01*
X217486Y61511D01*
X217528Y61463D01*
X217566Y61414D01*
X217601Y61362D01*
X217633Y61308D01*
X217662Y61252D01*
X217687Y61194D01*
X217708Y61135D01*
X217726Y61075D01*
X217739Y61013D01*
X217749Y60951D01*
X217755Y60889D01*
X217757Y60826D01*
X217755Y60763D01*
X217749Y60701D01*
X217739Y60639D01*
X217726Y60577D01*
X217708Y60517D01*
X217687Y60458D01*
X217662Y60400D01*
X217633Y60344D01*
X217601Y60290D01*
X217566Y60238D01*
X217528Y60189D01*
X217486Y60141D01*
X217442Y60097D01*
X217394Y60055D01*
X217345Y60017D01*
X217293Y59982D01*
X217239Y59950D01*
X217183Y59921D01*
X217125Y59896D01*
X217066Y59875D01*
X217006Y59857D01*
X216944Y59844D01*
X216882Y59834D01*
X216820Y59828D01*
X216757Y59826D01*
X216694Y59828D01*
X216632Y59834D01*
X216570Y59844D01*
X216508Y59857D01*
X216448Y59875D01*
X216389Y59896D01*
X216331Y59921D01*
X216275Y59950D01*
X216221Y59982D01*
X216169Y60017D01*
X216120Y60055D01*
X216072Y60097D01*
X216028Y60141D01*
X215986Y60189D01*
X215948Y60238D01*
X215913Y60290D01*
X215881Y60344D01*
X215852Y60400D01*
X215827Y60458D01*
X215806Y60517D01*
X215788Y60577D01*
X215775Y60639D01*
X215765Y60701D01*
X215759Y60763D01*
X215757Y60826D01*
D10*
X332231Y125497D02*
X337460Y185268D01*
X390259Y180649D01*
X385029Y120878D01*
X332231Y125497D01*
D11*
X323383Y143650D02*
X323385Y143713D01*
X323391Y143775D01*
X323401Y143837D01*
X323414Y143899D01*
X323432Y143959D01*
X323453Y144018D01*
X323478Y144076D01*
X323507Y144132D01*
X323539Y144186D01*
X323574Y144238D01*
X323612Y144287D01*
X323654Y144335D01*
X323698Y144379D01*
X323746Y144421D01*
X323795Y144459D01*
X323847Y144494D01*
X323901Y144526D01*
X323957Y144555D01*
X324015Y144580D01*
X324074Y144601D01*
X324134Y144619D01*
X324196Y144632D01*
X324258Y144642D01*
X324320Y144648D01*
X324383Y144650D01*
X324446Y144648D01*
X324508Y144642D01*
X324570Y144632D01*
X324632Y144619D01*
X324692Y144601D01*
X324751Y144580D01*
X324809Y144555D01*
X324865Y144526D01*
X324919Y144494D01*
X324971Y144459D01*
X325020Y144421D01*
X325068Y144379D01*
X325112Y144335D01*
X325154Y144287D01*
X325192Y144238D01*
X325227Y144186D01*
X325259Y144132D01*
X325288Y144076D01*
X325313Y144018D01*
X325334Y143959D01*
X325352Y143899D01*
X325365Y143837D01*
X325375Y143775D01*
X325381Y143713D01*
X325383Y143650D01*
X325381Y143587D01*
X325375Y143525D01*
X325365Y143463D01*
X325352Y143401D01*
X325334Y143341D01*
X325313Y143282D01*
X325288Y143224D01*
X325259Y143168D01*
X325227Y143114D01*
X325192Y143062D01*
X325154Y143013D01*
X325112Y142965D01*
X325068Y142921D01*
X325020Y142879D01*
X324971Y142841D01*
X324919Y142806D01*
X324865Y142774D01*
X324809Y142745D01*
X324751Y142720D01*
X324692Y142699D01*
X324632Y142681D01*
X324570Y142668D01*
X324508Y142658D01*
X324446Y142652D01*
X324383Y142650D01*
X324320Y142652D01*
X324258Y142658D01*
X324196Y142668D01*
X324134Y142681D01*
X324074Y142699D01*
X324015Y142720D01*
X323957Y142745D01*
X323901Y142774D01*
X323847Y142806D01*
X323795Y142841D01*
X323746Y142879D01*
X323698Y142921D01*
X323654Y142965D01*
X323612Y143013D01*
X323574Y143062D01*
X323539Y143114D01*
X323507Y143168D01*
X323478Y143224D01*
X323453Y143282D01*
X323432Y143341D01*
X323414Y143401D01*
X323401Y143463D01*
X323391Y143525D01*
X323385Y143587D01*
X323383Y143650D01*
D10*
X161222Y217722D02*
X121075Y173133D01*
X161222Y217722D02*
X200609Y182258D01*
X160461Y137669D01*
X121075Y173133D01*
D11*
X124732Y192353D02*
X124734Y192416D01*
X124740Y192478D01*
X124750Y192540D01*
X124763Y192602D01*
X124781Y192662D01*
X124802Y192721D01*
X124827Y192779D01*
X124856Y192835D01*
X124888Y192889D01*
X124923Y192941D01*
X124961Y192990D01*
X125003Y193038D01*
X125047Y193082D01*
X125095Y193124D01*
X125144Y193162D01*
X125196Y193197D01*
X125250Y193229D01*
X125306Y193258D01*
X125364Y193283D01*
X125423Y193304D01*
X125483Y193322D01*
X125545Y193335D01*
X125607Y193345D01*
X125669Y193351D01*
X125732Y193353D01*
X125795Y193351D01*
X125857Y193345D01*
X125919Y193335D01*
X125981Y193322D01*
X126041Y193304D01*
X126100Y193283D01*
X126158Y193258D01*
X126214Y193229D01*
X126268Y193197D01*
X126320Y193162D01*
X126369Y193124D01*
X126417Y193082D01*
X126461Y193038D01*
X126503Y192990D01*
X126541Y192941D01*
X126576Y192889D01*
X126608Y192835D01*
X126637Y192779D01*
X126662Y192721D01*
X126683Y192662D01*
X126701Y192602D01*
X126714Y192540D01*
X126724Y192478D01*
X126730Y192416D01*
X126732Y192353D01*
X126730Y192290D01*
X126724Y192228D01*
X126714Y192166D01*
X126701Y192104D01*
X126683Y192044D01*
X126662Y191985D01*
X126637Y191927D01*
X126608Y191871D01*
X126576Y191817D01*
X126541Y191765D01*
X126503Y191716D01*
X126461Y191668D01*
X126417Y191624D01*
X126369Y191582D01*
X126320Y191544D01*
X126268Y191509D01*
X126214Y191477D01*
X126158Y191448D01*
X126100Y191423D01*
X126041Y191402D01*
X125981Y191384D01*
X125919Y191371D01*
X125857Y191361D01*
X125795Y191355D01*
X125732Y191353D01*
X125669Y191355D01*
X125607Y191361D01*
X125545Y191371D01*
X125483Y191384D01*
X125423Y191402D01*
X125364Y191423D01*
X125306Y191448D01*
X125250Y191477D01*
X125196Y191509D01*
X125144Y191544D01*
X125095Y191582D01*
X125047Y191624D01*
X125003Y191668D01*
X124961Y191716D01*
X124923Y191765D01*
X124888Y191817D01*
X124856Y191871D01*
X124827Y191927D01*
X124802Y191985D01*
X124781Y192044D01*
X124763Y192104D01*
X124750Y192166D01*
X124740Y192228D01*
X124734Y192290D01*
X124732Y192353D01*
D10*
X91833Y74242D02*
X58505Y35902D01*
X91833Y74242D02*
X72663Y90906D01*
X39335Y52566D01*
X58505Y35902D01*
D11*
X41289Y67091D02*
X41291Y67154D01*
X41297Y67216D01*
X41307Y67278D01*
X41320Y67340D01*
X41338Y67400D01*
X41359Y67459D01*
X41384Y67517D01*
X41413Y67573D01*
X41445Y67627D01*
X41480Y67679D01*
X41518Y67728D01*
X41560Y67776D01*
X41604Y67820D01*
X41652Y67862D01*
X41701Y67900D01*
X41753Y67935D01*
X41807Y67967D01*
X41863Y67996D01*
X41921Y68021D01*
X41980Y68042D01*
X42040Y68060D01*
X42102Y68073D01*
X42164Y68083D01*
X42226Y68089D01*
X42289Y68091D01*
X42352Y68089D01*
X42414Y68083D01*
X42476Y68073D01*
X42538Y68060D01*
X42598Y68042D01*
X42657Y68021D01*
X42715Y67996D01*
X42771Y67967D01*
X42825Y67935D01*
X42877Y67900D01*
X42926Y67862D01*
X42974Y67820D01*
X43018Y67776D01*
X43060Y67728D01*
X43098Y67679D01*
X43133Y67627D01*
X43165Y67573D01*
X43194Y67517D01*
X43219Y67459D01*
X43240Y67400D01*
X43258Y67340D01*
X43271Y67278D01*
X43281Y67216D01*
X43287Y67154D01*
X43289Y67091D01*
X43287Y67028D01*
X43281Y66966D01*
X43271Y66904D01*
X43258Y66842D01*
X43240Y66782D01*
X43219Y66723D01*
X43194Y66665D01*
X43165Y66609D01*
X43133Y66555D01*
X43098Y66503D01*
X43060Y66454D01*
X43018Y66406D01*
X42974Y66362D01*
X42926Y66320D01*
X42877Y66282D01*
X42825Y66247D01*
X42771Y66215D01*
X42715Y66186D01*
X42657Y66161D01*
X42598Y66140D01*
X42538Y66122D01*
X42476Y66109D01*
X42414Y66099D01*
X42352Y66093D01*
X42289Y66091D01*
X42226Y66093D01*
X42164Y66099D01*
X42102Y66109D01*
X42040Y66122D01*
X41980Y66140D01*
X41921Y66161D01*
X41863Y66186D01*
X41807Y66215D01*
X41753Y66247D01*
X41701Y66282D01*
X41652Y66320D01*
X41604Y66362D01*
X41560Y66406D01*
X41518Y66454D01*
X41480Y66503D01*
X41445Y66555D01*
X41413Y66609D01*
X41384Y66665D01*
X41359Y66723D01*
X41338Y66782D01*
X41320Y66842D01*
X41307Y66904D01*
X41297Y66966D01*
X41291Y67028D01*
X41289Y67091D01*
X143998Y98183D02*
X260427Y227490D01*
X305759Y186673D01*
X189330Y57366D01*
X143998Y98183D01*
D12*
G36*
X279437Y148473D02*
X221224Y83820D01*
X216765Y87835D01*
X274978Y152488D01*
X279437Y148473D01*
G37*
M02*
