M48
;GenerationSoftware,Autodesk,EAGLE,9.7.0*%
;CreationDate,2021-12-13T18:55:04Z*%
FMAT,2
ICI,OFF
METRIC,TZ,000.000
T3C0.700
T2C0.800
T1C1.100
%
G90
M71
T1
X5725Y5382
X7392Y7299
T2
X19001Y8636
X24621Y14879
X20406Y10197
X23216Y13318
X21811Y11757
X26026Y16439
X27432Y18000
X17440Y10041
X23061Y16284
X18845Y11602
X21655Y14723
X20250Y13163
X24466Y17844
X25871Y19405
T3
X36412Y7519
X36586Y9512
X15717Y5287
X14255Y6651
X25150Y5996
X23812Y4509
X35265Y16386
X35091Y14394
X16047Y19148
X14709Y17662
M30